<svg id="Layer_1" enable-background="new 0 0 241.536 201.127" height="300" viewBox="0 0 241.536 201.127" width="300" xmlns="http://www.w3.org/2000/svg" version="1.1" xmlns:xlink="http://www.w3.org/1999/xlink" xmlns:svgjs="http://svgjs.dev/svgjs"><g width="100%" height="100%" transform="matrix(1,0,0,1,0,0)"><g><path d="m0 172.188h9.29v19.655c0 5.131 4.149 9.284 9.295 9.284h18.564c5.14 0 9.298-4.153 9.298-9.284v-19.655h148.641v19.655c0 5.131 4.152 9.284 9.288 9.284h18.574c5.14 0 9.297-4.153 9.297-9.284v-19.655h9.289v-26.797h-241.536z" fill="#ff6e00" fill-opacity="1" data-original-color="#000000ff" stroke="none" stroke-opacity="1"/><path d="m201.913 10.318s-62.02-10.318-81.133-10.318c-19.126 0-81.14 10.318-81.14 10.318l-29.872 79.693c-6.267 1.745-9.768 2.906-9.768 2.906v47.317h241.536v-47.317s-3.502-1.161-9.759-2.906zm-166.327 119.573c-8.653 0-15.658-7.008-15.658-15.655 0-8.648 7.004-15.657 15.658-15.657 8.64 0 15.653 7.009 15.653 15.657 0 8.647-7.013 15.655-15.653 15.655zm-3.621-46.291 21.294-56.693c14.22-2.287 53.173-8.314 67.521-8.314 14.335 0 53.296 6.027 67.506 8.298l21.256 56.71s-56.331-9.255-88.774-9.255c-32.455-.001-88.803 9.254-88.803 9.254zm173.985 46.291c-8.64 0-15.649-7.008-15.649-15.655 0-8.648 7.01-15.657 15.649-15.657 8.653 0 15.655 7.009 15.655 15.657 0 8.647-7.001 15.655-15.655 15.655z" fill="#ff6e00" fill-opacity="1" data-original-color="#000000ff" stroke="none" stroke-opacity="1"/><circle cx="159.131" cy="49.84" r="22.5" fill="#ff6e00" fill-opacity="1" data-original-color="#000000ff" stroke="none" stroke-opacity="1"/></g></g></svg>